<?xml version='1.0' encoding='utf-8'?>
<svg xmlns="http://www.w3.org/2000/svg" clip-rule="evenodd" fill-rule="nonzero" stroke-linecap="round" stroke-linejoin="round" stroke-miterlimit="10" version="1.1" viewBox="0 0 1080 1920"> <clipPath id="a"> <rect width="1080" height="1920"/> </clipPath> <g clip-path="url(#a)"> <g fill-rule="evenodd"> <path d="m-10.287-5.566h1084.2v1924.7h-1084.2v-1924.7z" fill="#fff"/> <path d="m1076.8 1923.4s-501.67-708.78-285.42-1022.1c269.34-390.2 1.373-382.5 146.92-747.74 49.078-123.15 140.56-150.86 140.56-150.86l-2.07 1568.8v351.84z" fill="#ffd335" fill-opacity=".37613"/> <g> <path d="m726.51 1615.9c-10.004 0-18.109 28.88-18.109 64.52 0 12.5 1.046 24.07 2.774 33.96-5.767-8.22-13.2-17.14-22.04-25.98-25.196-25.19-51.364-39.89-58.438-32.81-7.074 7.07 7.62 33.24 32.816 58.44 8.839 8.84 17.76 16.27 25.971 22.04-9.884-1.73-21.458-2.78-33.959-2.78-35.633 0-64.517 8.11-64.517 18.11s28.884 18.12 64.517 18.12c12.49 0 24.052-1.05 33.931-2.77-8.205 5.76-17.112 13.21-25.943 22.04-25.196 25.2-39.89 51.36-32.816 58.44 7.074 7.07 33.242-7.62 58.438-32.82 8.84-8.84 16.273-17.76 22.04-25.97-1.728 9.89-2.774 21.44-2.774 33.95 0 35.63 8.105 64.53 18.109 64.53s18.122-28.9 18.122-64.53c0-12.49-1.049-24.04-2.774-33.92 5.766 8.2 13.209 17.11 22.04 25.94 25.196 25.2 51.365 39.89 58.439 32.82 7.073-7.08-7.62-33.24-32.816-58.44-8.831-8.83-17.739-16.28-25.943-22.04 9.878 1.72 21.427 2.77 33.917 2.77 35.632 0 64.53-8.12 64.53-18.12s-28.898-18.11-64.53-18.11c-12.501 0-24.061 1.05-33.945 2.78 8.211-5.77 17.131-13.2 25.971-22.04 25.196-25.2 39.889-51.37 32.816-58.44-7.074-7.08-33.243 7.62-58.439 32.81-8.831 8.84-16.274 17.74-22.04 25.95 1.725-9.88 2.774-21.44 2.774-33.93 0-35.64-8.118-64.52-18.122-64.52z" fill="#de82ec"/> <path d="m705.78 1751.4c0-11.45 9.285-20.74 20.738-20.74s20.737 9.29 20.737 20.74-9.284 20.74-20.737 20.74-20.738-9.29-20.738-20.74z" fill="#ffd335"/> <path d="m204.25 1599.8c-7.438 0-13.463 21.47-13.463 47.96 0 9.3 0.778 17.9 2.062 25.25-4.287-6.11-9.813-12.74-16.385-19.31-18.732-18.73-38.187-29.65-43.446-24.4-5.259 5.26 5.665 24.72 24.397 43.45 6.572 6.57 13.204 12.1 19.308 16.39-7.348-1.29-15.953-2.07-25.247-2.07-26.491 0-47.964 6.03-47.964 13.47 0 7.43 21.473 13.47 47.964 13.47 9.286 0 17.882-0.78 25.226-2.06-6.1 4.28-12.722 9.82-19.287 16.38-18.732 18.73-29.656 38.19-24.397 43.45s24.714-5.67 43.446-24.4c6.572-6.57 12.098-13.2 16.385-19.31-1.284 7.35-2.062 15.95-2.062 25.24 0 26.49 6.025 47.97 13.463 47.97 7.437 0 13.473-21.48 13.473-47.97 0-9.29-0.78-17.87-2.063-25.22 4.287 6.1 9.82 12.73 16.386 19.29 18.732 18.73 38.187 29.66 43.446 24.4s-5.665-24.72-24.397-43.45c-6.566-6.56-13.188-12.1-19.287-16.38 7.344 1.28 15.93 2.06 25.215 2.06 26.491 0 47.975-6.04 47.975-13.47 0-7.44-21.484-13.47-47.975-13.47-9.294 0-17.888 0.78-25.236 2.07 6.104-4.29 12.736-9.82 19.308-16.39 18.732-18.73 29.656-38.19 24.397-43.45-5.259-5.25-24.714 5.67-43.446 24.4-6.566 6.57-12.099 13.19-16.386 19.29 1.283-7.35 2.063-15.94 2.063-25.23 0-26.49-6.036-47.96-13.473-47.96z" fill="#de82ec"/> <path d="m188.84 1700.6c0-8.51 6.902-15.42 15.417-15.42s15.417 6.91 15.417 15.42c0 8.52-6.902 15.42-15.417 15.42s-15.417-6.9-15.417-15.42z" fill="#ffd335"/> <path d="m901.62 1298.5c-7.16 2.52-5.688 25.23 3.286 50.74 3.148 8.95 6.812 16.97 10.538 23.61-6.196-4.43-13.763-8.94-22.317-13.04-24.381-11.69-46.813-15.62-50.095-8.77-3.282 6.84 13.826 21.87 38.207 33.56 8.554 4.11 16.811 7.18 24.141 9.24-7.51 1.25-16.058 3.42-25.007 6.57-25.506 8.97-44.14 22.05-41.621 29.21 2.52 7.16 25.24 5.69 50.746-3.28 8.94-3.14 16.953-6.81 23.589-10.53-4.421 6.19-8.922 13.76-13.02 22.31-11.69 24.38-15.617 46.81-8.772 50.09 6.845 3.29 21.876-13.82 33.566-38.2 4.101-8.56 7.176-16.81 9.236-24.14 1.252 7.51 3.415 16.05 6.563 24.99 8.974 25.51 22.053 44.15 29.214 41.63 7.161-2.51 5.694-25.24-3.279-50.75-3.146-8.94-6.805-16.94-10.528-23.58 6.193 4.42 13.765 8.92 22.31 13.02 24.377 11.69 46.817 15.62 50.097 8.77 3.28-6.84-13.83-21.87-38.209-33.56-8.545-4.1-16.796-7.19-24.121-9.25 7.506-1.25 16.037-3.41 24.977-6.55 25.503-8.98 44.143-22.07 41.623-29.23-2.51-7.16-25.24-5.68-50.748 3.29-8.948 3.15-16.959 6.81-23.599 10.54 4.425-6.2 8.939-13.77 13.04-22.32 11.69-24.38 15.617-46.81 8.772-50.1-6.845-3.28-21.876 13.83-33.566 38.21-4.097 8.55-7.182 16.8-9.243 24.12-1.253-7.5-3.414-16.04-6.559-24.98-8.974-25.51-22.06-44.14-29.221-41.62z" fill="#de82ec"/> <path d="m920.9 1400.7c-2.884-8.2 1.423-17.18 9.622-20.07 8.198-2.88 17.182 1.42 20.066 9.62s-1.423 17.18-9.621 20.07c-8.198 2.88-17.183-1.42-20.067-9.62z" fill="#ffd335"/> </g> <path d="m68.682-0.012261s209.99 301.04 94.954 578.93c-143.28 346.1 3.908 337.27-71.64 660.42-25.473 108.96-91.089 207.1-91.089 207.1l-1.0421-1447 68.817 0.55523z" fill="#de82ec" fill-opacity=".39865"/> <g> <path d="m926.54 33.51c-4.644 1.6338-3.689 16.365 2.13 32.905 2.042 5.8028 4.418 11.004 6.834 15.31-4.018-2.8695-8.925-5.7964-14.472-8.456-15.81-7.5808-30.357-10.128-32.486-5.6889-2.128 4.4388 8.966 14.186 24.777 21.767 5.547 2.6595 10.901 4.653 15.655 5.9892-4.871 0.8121-10.414 2.2166-16.217 4.2582-16.54 5.8191-28.624 14.299-26.99 18.942 1.634 4.644 16.367 3.695 32.907-2.124 5.798-2.04 10.994-4.415 15.298-6.829-2.867 4.016-5.786 8.926-8.443 14.467-7.581 15.811-10.128 30.358-5.689 32.486s14.186-8.966 21.767-24.777c2.659-5.546 4.653-10.901 5.989-15.654 0.812 4.87 2.214 10.407 4.256 16.209 5.819 16.541 14.301 28.631 18.945 26.997 4.643-1.634 3.692-16.373-2.127-32.914-2.04-5.797-4.413-10.987-6.827-15.29 4.016 2.867 8.926 5.786 14.468 8.443 15.81 7.58 30.361 10.127 32.481 5.689 2.13-4.439-8.962-14.187-24.772-21.768-5.542-2.657-10.892-4.657-15.642-5.9932 4.867-0.8126 10.399-2.2117 16.197-4.2515 16.537-5.8192 28.627-14.307 26.997-18.951-1.64-4.6436-16.374-3.6864-32.914 2.1329-5.803 2.0416-10.998 4.4151-15.304 6.8314 2.87-4.0181 5.796-8.9253 8.456-14.472 7.581-15.81 10.128-30.357 5.689-32.486s-14.186 8.966-21.767 24.776c-2.657 5.5416-4.658 10.892-5.994 15.642-0.812-4.8672-2.214-10.406-4.254-16.203-5.819-16.54-14.305-28.622-18.948-26.988z" fill="#de82ec"/> <path d="m939.05 99.797c-1.87-5.3163 0.923-11.142 6.24-13.013 5.316-1.8704 11.142 0.923 13.012 6.2393 1.871 5.3163-0.923 11.143-6.239 13.013s-11.142-0.923-13.013-6.2393z" fill="#ffd335"/> <path d="m153.45 92.781c-4.643 1.6338-3.688 16.365 2.131 32.906 2.042 5.802 4.417 11.004 6.834 15.31-4.018-2.87-8.926-5.797-14.472-8.456-15.811-7.581-30.358-10.128-32.486-5.689s8.966 14.186 24.776 21.767c5.547 2.659 10.902 4.653 15.655 5.989-4.87 0.812-10.413 2.217-16.216 4.258-16.54 5.82-28.624 14.299-26.99 18.943 1.633 4.643 16.367 3.695 32.907-2.125 5.798-2.039 10.994-4.415 15.297-6.829-2.867 4.016-5.786 8.926-8.443 14.468-7.581 15.81-10.127 30.357-5.689 32.485 4.439 2.129 14.187-8.966 21.767-24.776 2.66-5.547 4.653-10.902 5.99-15.655 0.812 4.87 2.214 10.407 4.256 16.21 5.819 16.54 14.3 28.63 18.944 26.997 4.644-1.634 3.693-16.374-2.126-32.914-2.04-5.798-4.413-10.987-6.827-15.291 4.016 2.867 8.926 5.786 14.467 8.443 15.811 7.581 30.358 10.128 32.486 5.689s-8.966-14.186-24.777-21.767c-5.541-2.657-10.891-4.658-15.641-5.994 4.867-0.812 10.399-2.211 16.196-4.251 16.541-5.819 28.629-14.308 26.995-18.951-1.634-4.644-16.371-3.687-32.912 2.133-5.802 2.041-10.997 4.415-15.303 6.831 2.869-4.018 5.796-8.925 8.456-14.472 7.58-15.81 10.127-30.357 5.689-32.486-4.439-2.1283-14.187 8.9655-21.768 24.776-2.657 5.542-4.657 10.892-5.993 15.642-0.813-4.867-2.214-10.406-4.254-16.204-5.819-16.54-14.305-28.621-18.949-26.988z" fill="#de82ec"/> <path d="m165.96 159.07c-1.87-5.316 0.923-11.142 6.239-13.013 5.317-1.87 11.143 0.923 13.013 6.24 1.87 5.316-0.923 11.142-6.239 13.012-5.317 1.871-11.143-0.923-13.013-6.239z" fill="#ffd335"/> <path d="m975.25 257.96c-4.643 1.634-3.688 16.365 2.131 32.905 2.042 5.803 4.418 11.004 6.834 15.31-4.018-2.869-8.925-5.796-14.472-8.456-15.811-7.58-30.358-10.127-32.486-5.689-2.128 4.439 8.966 14.187 24.777 21.767 5.546 2.66 10.901 4.653 15.654 5.99-4.87 0.812-10.413 2.216-16.216 4.258-16.54 5.819-28.624 14.299-26.99 18.942 1.634 4.644 16.367 3.695 32.907-2.124 5.798-2.04 10.994-4.415 15.297-6.829-2.866 4.016-5.786 8.926-8.443 14.467-7.58 15.811-10.127 30.358-5.688 32.486 4.438 2.128 14.186-8.966 21.767-24.777 2.659-5.546 4.653-10.901 5.989-15.654 0.812 4.87 2.214 10.407 4.252 16.21 5.82 16.54 14.3 28.63 18.95 26.996 4.64-1.634 3.69-16.373-2.13-32.914-2.04-5.797-4.41-10.987-6.83-15.29 4.02 2.867 8.93 5.786 14.47 8.443 15.81 7.58 30.36 10.127 32.49 5.689 2.13-4.439-8.97-14.187-24.78-21.767-5.54-2.658-10.89-4.658-15.64-5.994 4.87-0.813 10.4-2.212 16.2-4.252 16.54-5.819 28.62-14.307 26.99-18.951-1.63-4.643-16.37-3.686-32.91 2.133-5.8 2.042-11 4.415-15.3 6.832 2.87-4.018 5.79-8.926 8.45-14.472 7.58-15.811 10.13-30.358 5.69-32.486s-14.19 8.966-21.77 24.777c-2.65 5.541-4.654 10.891-5.99 15.641-0.813-4.867-2.214-10.405-4.254-16.203-5.819-16.54-14.305-28.622-18.949-26.988z" fill="#de82ec"/> <path d="m987.76 324.24c-1.87-5.317 0.923-11.143 6.239-13.013 5.317-1.87 11.146 0.923 13.016 6.239 1.87 5.317-0.93 11.143-6.24 13.013-5.318 1.87-11.144-0.923-13.015-6.239z" fill="#ffd335"/> <path d="m96.503 1044.3c-4.6436 1.63-3.6886 16.36 2.1307 32.9 2.0413 5.81 4.4173 11.01 6.8333 15.31-4.018-2.86-8.9249-5.79-14.472-8.45-15.81-7.58-30.357-10.13-32.486-5.69s8.966 14.19 24.776 21.77c5.5468 2.66 10.902 4.65 15.655 5.99-4.8703 0.81-10.414 2.21-16.216 4.25-16.54 5.82-28.624 14.3-26.99 18.95 1.6338 4.64 16.367 3.69 32.907-2.13 5.7977-2.04 10.994-4.41 15.297-6.83-2.867 4.02-5.7859 8.93-8.443 14.47-7.5808 15.81-10.128 30.36-5.6889 32.49 4.4388 2.12 14.186-8.97 21.767-24.78 2.66-5.55 4.653-10.9 5.989-15.66 0.812 4.88 2.215 10.41 4.256 16.21 5.82 16.55 14.301 28.64 18.945 27 4.643-1.63 3.693-16.37-2.127-32.91-2.039-5.8-4.412-10.99-6.827-15.29 4.017 2.86 8.926 5.78 14.468 8.44 15.81 7.58 30.357 10.13 32.486 5.69 2.128-4.44-8.966-14.19-24.777-21.77-5.541-2.66-10.892-4.66-15.642-5.99 4.867-0.81 10.4-2.21 16.197-4.25 16.54-5.82 28.628-14.31 26.995-18.95-1.634-4.65-16.372-3.69-32.912 2.13-5.803 2.04-10.998 4.41-15.304 6.83 2.87-4.02 5.797-8.93 8.456-14.47 7.581-15.81 10.128-30.36 5.689-32.49s-14.186 8.97-21.767 24.78c-2.657 5.54-4.657 10.89-5.994 15.64-0.812-4.87-2.213-10.4-4.253-16.2-5.82-16.54-14.305-28.62-18.949-26.99z" fill="#de82ec"/> <path d="m109.01 1110.6c-1.871-5.32 0.923-11.15 6.239-13.02s11.142 0.93 13.013 6.24c1.87 5.32-0.923 11.14-6.24 13.02-5.316 1.87-11.142-0.93-13.012-6.24z" fill="#ffd335"/> </g> </g> </g> </svg>